<svg width="22" height="22" viewBox="0 0 22 22" fill="none" xmlns="http://www.w3.org/2000/svg">
<path d="M15.2969 3.36368V1.95225C15.2969 1.5813 14.9893 1.27368 14.6184 1.27368C14.2474 1.27368 13.9398 1.5813 13.9398 1.95225V3.3094H8.05885V1.95225C8.05885 1.5813 7.75123 1.27368 7.38028 1.27368C7.00932 1.27368 6.70171 1.5813 6.70171 1.95225V3.36368C4.25885 3.58987 3.07361 5.04654 2.89266 7.20892C2.87456 7.4713 3.0917 7.68844 3.34504 7.68844H18.6536C18.916 7.68844 19.1331 7.46225 19.106 7.20892C18.925 5.04654 17.7398 3.58987 15.2969 3.36368Z" fill="#363636"/>
<path d="M17.3329 13.7144C15.3334 13.7144 13.7139 15.3339 13.7139 17.3334C13.7139 18.012 13.9039 18.6544 14.2386 19.1972C14.8629 20.2467 16.012 20.9525 17.3329 20.9525C18.6539 20.9525 19.8029 20.2467 20.4272 19.1972C20.762 18.6544 20.952 18.012 20.952 17.3334C20.952 15.3339 19.3324 13.7144 17.3329 13.7144ZM19.2058 16.9444L17.2786 18.7267C17.152 18.8444 16.9801 18.9077 16.8172 18.9077C16.6453 18.9077 16.4734 18.8444 16.3377 18.7086L15.442 17.8129C15.1796 17.5505 15.1796 17.1163 15.442 16.8539C15.7043 16.5915 16.1386 16.5915 16.401 16.8539L16.8353 17.2882L18.2829 15.9491C18.5543 15.6958 18.9886 15.7139 19.242 15.9853C19.4953 16.2567 19.4772 16.682 19.2058 16.9444Z" fill="#363636"/>
<path d="M18.2374 9.04565H3.76121C3.26359 9.04565 2.85645 9.4528 2.85645 9.95042V15.5237C2.85645 18.238 4.21359 20.0476 7.38025 20.0476H11.8407C12.465 20.0476 12.8993 19.4414 12.7003 18.8533C12.5193 18.3285 12.3655 17.7495 12.3655 17.3333C12.3655 14.5918 14.6003 12.3571 17.3417 12.3571C17.6041 12.3571 17.8664 12.3752 18.1198 12.4204C18.6626 12.5018 19.1512 12.0766 19.1512 11.5337V9.95946C19.1422 9.4528 18.735 9.04565 18.2374 9.04565ZM8.47502 16.6185C8.30311 16.7814 8.06787 16.8809 7.83264 16.8809C7.5974 16.8809 7.36216 16.7814 7.19025 16.6185C7.0274 16.4466 6.92787 16.2114 6.92787 15.9761C6.92787 15.7409 7.0274 15.5057 7.19025 15.3338C7.28073 15.2523 7.37121 15.189 7.48883 15.1437C7.82359 14.999 8.22168 15.0804 8.47502 15.3338C8.63787 15.5057 8.7374 15.7409 8.7374 15.9761C8.7374 16.2114 8.63787 16.4466 8.47502 16.6185ZM8.47502 13.4518C8.42978 13.488 8.38454 13.5242 8.3393 13.5604C8.28502 13.5966 8.23073 13.6237 8.17645 13.6418C8.12216 13.669 8.06787 13.6871 8.01359 13.6961C7.95025 13.7052 7.88692 13.7142 7.83264 13.7142C7.5974 13.7142 7.36216 13.6147 7.19025 13.4518C7.0274 13.2799 6.92787 13.0447 6.92787 12.8095C6.92787 12.5742 7.0274 12.339 7.19025 12.1671C7.39835 11.959 7.71502 11.8595 8.01359 11.9228C8.06787 11.9318 8.12216 11.9499 8.17645 11.9771C8.23073 11.9952 8.28502 12.0223 8.3393 12.0585C8.38454 12.0947 8.42978 12.1309 8.47502 12.1671C8.63787 12.339 8.7374 12.5742 8.7374 12.8095C8.7374 13.0447 8.63787 13.2799 8.47502 13.4518ZM11.6417 13.4518C11.4698 13.6147 11.2345 13.7142 10.9993 13.7142C10.7641 13.7142 10.5288 13.6147 10.3569 13.4518C10.1941 13.2799 10.0945 13.0447 10.0945 12.8095C10.0945 12.5742 10.1941 12.339 10.3569 12.1671C10.7007 11.8323 11.3069 11.8323 11.6417 12.1671C11.8045 12.339 11.9041 12.5742 11.9041 12.8095C11.9041 13.0447 11.8045 13.2799 11.6417 13.4518Z" fill="#363636"/>
</svg>
