<svg width="16" height="16" viewBox="0 0 16 16" fill="none" xmlns="http://www.w3.org/2000/svg">
<path d="M10.54 13.4534C10.3667 13.4534 10.1867 13.4468 9.99338 13.4268C9.64671 13.4001 9.25338 13.3334 8.84671 13.2334L7.72671 12.9668C4.65338 12.2401 3.64671 10.6134 4.36671 7.54676L5.02005 4.75342C5.16671 4.12009 5.34005 3.60676 5.55338 3.18009C6.70005 0.813425 8.89338 1.02676 10.4534 1.39342L11.5667 1.65342C13.1267 2.02009 14.1134 2.60009 14.6667 3.48676C15.2134 4.37342 15.3 5.51342 14.9334 7.07342L14.28 9.86009C13.7067 12.3001 12.5134 13.4534 10.54 13.4534ZM8.74671 2.16676C7.63338 2.16676 6.92671 2.62676 6.45338 3.61342C6.28005 3.97342 6.12671 4.42009 5.99338 4.98009L5.34005 7.77343C4.74671 10.2934 5.43338 11.3934 7.95338 11.9934L9.07338 12.2601C9.43338 12.3468 9.77338 12.4001 10.08 12.4268C11.8934 12.6068 12.7934 11.8134 13.3 9.63342L13.9534 6.84676C14.2534 5.56009 14.2134 4.66009 13.8134 4.01342C13.4134 3.36676 12.6267 2.92676 11.3334 2.62676L10.22 2.36676C9.66671 2.23342 9.17338 2.16676 8.74671 2.16676Z" fill="#363636"/>
<path d="M5.55304 14.8334C3.83971 14.8334 2.74638 13.8067 2.04638 11.64L1.19304 9.0067C0.246376 6.07337 1.09304 4.42003 4.01304 3.47337L5.06638 3.13337C5.41304 3.0267 5.67304 2.95337 5.90638 2.91337C6.09971 2.87337 6.28638 2.9467 6.39971 3.10003C6.51304 3.25337 6.53304 3.45337 6.45304 3.6267C6.27971 3.98003 6.12638 4.4267 5.99971 4.9867L5.34638 7.78003C4.75304 10.3 5.43971 11.4 7.95971 12L9.07971 12.2667C9.43971 12.3534 9.77971 12.4067 10.0864 12.4334C10.2997 12.4534 10.473 12.6 10.533 12.8067C10.5864 13.0134 10.5064 13.2267 10.333 13.3467C9.89304 13.6467 9.33971 13.9 8.63971 14.1267L7.58638 14.4734C6.81971 14.7134 6.15304 14.8334 5.55304 14.8334ZM5.18638 4.1467L4.32638 4.4267C1.94638 5.19337 1.37971 6.31337 2.14638 8.70003L2.99971 11.3334C3.77304 13.7134 4.89304 14.2867 7.27304 13.52L8.32638 13.1734C8.36638 13.16 8.39971 13.1467 8.43971 13.1334L7.73304 12.9667C4.65971 12.24 3.65304 10.6134 4.37304 7.5467L5.02638 4.75337C5.07304 4.54003 5.12638 4.33337 5.18638 4.1467Z" fill="#363636"/>
<path d="M11.6599 7.00676C11.6199 7.00676 11.5799 7.0001 11.5332 6.99343L8.29992 6.17343C8.03325 6.10676 7.87325 5.83343 7.93992 5.56676C8.00658 5.3001 8.27992 5.1401 8.54658 5.20676L11.7799 6.02676C12.0466 6.09343 12.2066 6.36676 12.1399 6.63343C12.0866 6.85343 11.8799 7.00676 11.6599 7.00676Z" fill="#363636"/>
<path d="M9.70643 9.25993C9.66643 9.25993 9.62643 9.25326 9.57976 9.2466L7.63976 8.75326C7.37309 8.6866 7.21309 8.41326 7.27976 8.1466C7.34643 7.87993 7.61976 7.71993 7.88643 7.7866L9.82643 8.27993C10.0931 8.3466 10.2531 8.61993 10.1864 8.8866C10.1331 9.11326 9.93309 9.25993 9.70643 9.25993Z" fill="#363636"/>
</svg>
