<svg width="16" height="16" viewBox="0 0 16 16" fill="none" xmlns="http://www.w3.org/2000/svg">
<path d="M8 10.5C6.62 10.5 5.5 9.38 5.5 8C5.5 6.62 6.62 5.5 8 5.5C9.38 5.5 10.5 6.62 10.5 8C10.5 9.38 9.38 10.5 8 10.5ZM8 6.5C7.17333 6.5 6.5 7.17333 6.5 8C6.5 8.82667 7.17333 9.5 8 9.5C8.82667 9.5 9.5 8.82667 9.5 8C9.5 7.17333 8.82667 6.5 8 6.5Z" fill="#363636"/>
<path d="M10.1397 14.7934C9.99967 14.7934 9.85967 14.7734 9.71968 14.7401C9.30634 14.6268 8.95967 14.3668 8.73967 14.0001L8.65967 13.8668C8.26634 13.1868 7.72634 13.1868 7.33301 13.8668L7.25968 13.9934C7.03967 14.3668 6.69301 14.6334 6.27967 14.7401C5.85967 14.8534 5.42634 14.7934 5.05967 14.5734L3.91301 13.9134C3.50634 13.6801 3.21301 13.3001 3.08634 12.8401C2.96634 12.3801 3.02634 11.9068 3.25967 11.5001C3.45301 11.1601 3.50634 10.8534 3.39301 10.6601C3.27967 10.4668 2.99301 10.3534 2.59967 10.3534C1.62634 10.3534 0.833008 9.56011 0.833008 8.58678V7.41344C0.833008 6.44011 1.62634 5.64678 2.59967 5.64678C2.99301 5.64678 3.27967 5.53344 3.39301 5.34011C3.50634 5.14678 3.45967 4.84011 3.25967 4.50011C3.02634 4.09344 2.96634 3.61344 3.08634 3.16011C3.20634 2.70011 3.49967 2.32011 3.91301 2.08678L5.06634 1.42678C5.81967 0.98011 6.81301 1.24011 7.26634 2.00678L7.34634 2.14011C7.73968 2.82011 8.27968 2.82011 8.67301 2.14011L8.74634 2.01344C9.19967 1.24011 10.193 0.98011 10.953 1.43344L12.0997 2.09344C12.5063 2.32678 12.7997 2.70678 12.9263 3.16678C13.0463 3.62678 12.9863 4.10011 12.753 4.50678C12.5597 4.84678 12.5063 5.15344 12.6197 5.34678C12.733 5.54011 13.0197 5.65344 13.413 5.65344C14.3863 5.65344 15.1797 6.44678 15.1797 7.42011V8.59344C15.1797 9.56678 14.3863 10.3601 13.413 10.3601C13.0197 10.3601 12.733 10.4734 12.6197 10.6668C12.5063 10.8601 12.553 11.1668 12.753 11.5068C12.9863 11.9134 13.053 12.3934 12.9263 12.8468C12.8063 13.3068 12.513 13.6868 12.0997 13.9201L10.9463 14.5801C10.693 14.7201 10.4197 14.7934 10.1397 14.7934ZM7.99967 12.3268C8.59301 12.3268 9.14634 12.7001 9.52634 13.3601L9.59967 13.4868C9.67967 13.6268 9.81301 13.7268 9.97301 13.7668C10.133 13.8068 10.293 13.7868 10.4263 13.7068L11.5797 13.0401C11.753 12.9401 11.8863 12.7734 11.9397 12.5734C11.993 12.3734 11.9663 12.1668 11.8663 11.9934C11.4863 11.3401 11.4397 10.6668 11.733 10.1534C12.0263 9.64011 12.633 9.34678 13.393 9.34678C13.8197 9.34678 14.1597 9.00678 14.1597 8.58011V7.40678C14.1597 6.98678 13.8197 6.64011 13.393 6.64011C12.633 6.64011 12.0263 6.34678 11.733 5.83344C11.4397 5.32011 11.4863 4.64678 11.8663 3.99344C11.9663 3.82011 11.993 3.61344 11.9397 3.41344C11.8863 3.21344 11.7597 3.05344 11.5863 2.94678L10.433 2.28678C10.1463 2.11344 9.76634 2.21344 9.59301 2.50678L9.51967 2.63344C9.13967 3.29344 8.58634 3.66678 7.99301 3.66678C7.39967 3.66678 6.84634 3.29344 6.46634 2.63344L6.39301 2.50011C6.22634 2.22011 5.85301 2.12011 5.56634 2.28678L4.41301 2.95344C4.23967 3.05344 4.10634 3.22011 4.05301 3.42011C3.99967 3.62011 4.02634 3.82678 4.12634 4.00011C4.50634 4.65344 4.55301 5.32678 4.25967 5.84011C3.96634 6.35344 3.35967 6.64678 2.59967 6.64678C2.17301 6.64678 1.83301 6.98678 1.83301 7.41344V8.58678C1.83301 9.00678 2.17301 9.35344 2.59967 9.35344C3.35967 9.35344 3.96634 9.64678 4.25967 10.1601C4.55301 10.6734 4.50634 11.3468 4.12634 12.0001C4.02634 12.1734 3.99967 12.3801 4.05301 12.5801C4.10634 12.7801 4.23301 12.9401 4.40634 13.0468L5.55967 13.7068C5.69967 13.7934 5.86634 13.8134 6.01967 13.7734C6.17967 13.7334 6.31301 13.6268 6.39967 13.4868L6.47301 13.3601C6.85301 12.7068 7.40634 12.3268 7.99967 12.3268Z" fill="#363636"/>
</svg>
