<svg width="30" height="30" viewBox="0 0 30 30" fill="none" xmlns="http://www.w3.org/2000/svg">
<path d="M3.67188 5.54492C4.15175 5.34615 4.68002 5.29418 5.18945 5.39551C5.69881 5.49686 6.16695 5.74702 6.53418 6.11426C6.90131 6.4815 7.15162 6.94968 7.25293 7.45898C7.35412 7.96815 7.3021 8.49595 7.10352 8.97559C6.90475 9.45546 6.56762 9.86573 6.13574 10.1543C5.70388 10.4428 5.19614 10.5967 4.67676 10.5967C3.98072 10.5958 3.31353 10.3192 2.82129 9.82715C2.32892 9.33478 2.05159 8.66702 2.05078 7.9707L2.05762 7.77637C2.0911 7.32546 2.24074 6.88949 2.49316 6.51172C2.7817 6.07991 3.19209 5.7437 3.67188 5.54492ZM4.67676 5.93066C4.13589 5.93126 3.6178 6.14684 3.23535 6.5293C2.8529 6.91175 2.63731 7.42983 2.63672 7.9707C2.63672 8.37423 2.75628 8.76897 2.98047 9.10449C3.20465 9.44001 3.52368 9.70105 3.89648 9.85547C4.26926 10.0099 4.67946 10.0504 5.0752 9.97168C5.47087 9.89293 5.83484 9.69934 6.12012 9.41406C6.40539 9.12878 6.59898 8.76482 6.67773 8.36914C6.75645 7.97341 6.71591 7.56321 6.56152 7.19043C6.4071 6.81762 6.14606 6.4986 5.81055 6.27441C5.47503 6.05023 5.08028 5.93066 4.67676 5.93066Z" fill="black" stroke="#363636" stroke-width="0.351562"/>
<path d="M25.3232 5.34473C26.0196 5.34553 26.6873 5.62286 27.1797 6.11523C27.6718 6.60748 27.9483 7.27467 27.9492 7.9707C27.9492 8.49008 27.7954 8.99783 27.5068 9.42969C27.2183 9.86156 26.808 10.1987 26.3281 10.3975C25.8485 10.596 25.3207 10.6481 24.8115 10.5469C24.3022 10.4456 23.834 10.1953 23.4668 9.82812C23.0996 9.46089 22.8494 8.99276 22.748 8.4834C22.6467 7.97397 22.6987 7.44569 22.8975 6.96582C23.0962 6.48603 23.4324 6.07564 23.8643 5.78711C24.242 5.53469 24.678 5.38505 25.1289 5.35156L25.3232 5.34473ZM26.1045 6.08594C25.7318 5.93156 25.3214 5.8911 24.9258 5.96973C24.53 6.04845 24.1662 6.24299 23.8809 6.52832C23.5955 6.81365 23.401 7.17747 23.3223 7.57324C23.2436 7.9689 23.2841 8.37926 23.4385 8.75195C23.5929 9.12467 23.855 9.44285 24.1904 9.66699C24.5259 9.89106 24.9199 10.0107 25.3232 10.0107C25.8641 10.0102 26.3832 9.79554 26.7656 9.41309C27.1481 9.03063 27.3627 8.51158 27.3633 7.9707C27.3632 7.56732 27.2436 7.17331 27.0195 6.83789C26.7954 6.50244 26.4772 6.24037 26.1045 6.08594Z" fill="black" stroke="#363636" stroke-width="0.351562"/>
<mask id="path-3-inside-1_3111_12057" fill="white">
<path d="M25.7442 11.7397C25.4064 11.7398 25.0725 11.8117 24.7646 11.9507C24.4567 12.0897 24.1819 12.2926 23.9584 12.5459L21.5982 15.2224C21.5258 15.3044 21.4369 15.37 21.3372 15.4149C21.2375 15.4598 21.1294 15.483 21.02 15.4829H18.9972C18.5306 15.4834 18.0832 15.6691 17.7532 15.999C17.4233 16.329 17.2376 16.7764 17.2371 17.243V17.823H12.7629V17.243C12.7617 16.7912 12.5867 16.3571 12.2741 16.0309C11.9614 15.7047 11.5352 15.5114 11.0838 15.4911V12.5724C11.0845 11.9109 11.3476 11.2767 11.8153 10.8089C12.283 10.3411 12.9172 10.0779 13.5787 10.0771H16.4214C17.0829 10.0779 17.717 10.3411 18.1848 10.8089C18.6525 11.2767 18.9155 11.9109 18.9162 12.5724V13.4907C18.9162 13.615 18.9656 13.7342 19.0535 13.8222C19.1414 13.9101 19.2606 13.9594 19.3849 13.9594C19.5093 13.9594 19.6285 13.9101 19.7164 13.8222C19.8043 13.7342 19.8537 13.615 19.8537 13.4907V12.5724C19.8527 11.6624 19.4908 10.7899 18.8473 10.1463C18.2039 9.5028 17.3314 9.14077 16.4214 9.13965H13.5786C12.6686 9.14077 11.7962 9.5028 11.1527 10.1463C10.5093 10.7899 10.1473 11.6624 10.1463 12.5724V15.4829H8.97995C8.87062 15.483 8.76251 15.4598 8.66282 15.4149C8.56314 15.37 8.47415 15.3044 8.4018 15.2224L6.04156 12.5459C5.72172 12.1832 5.29903 11.9265 4.82971 11.8099C4.3604 11.6934 3.86672 11.7225 3.41436 11.8934C2.962 12.0643 2.57241 12.3689 2.29743 12.7667C2.02244 13.1645 1.8751 13.6365 1.875 14.1201V20.7211C1.87592 21.5728 2.21469 22.3894 2.81696 22.9917C3.41924 23.594 4.23584 23.9327 5.08759 23.9336L7.93076 23.9227L9.52881 27.3792C9.56639 27.4605 9.62645 27.5293 9.70189 27.5774C9.77734 27.6256 9.86501 27.6512 9.95453 27.6511C10.0224 27.6512 10.0894 27.6363 10.1509 27.6076C10.2068 27.5818 10.257 27.5453 10.2988 27.5C10.3405 27.4548 10.3729 27.4017 10.3941 27.344C10.4153 27.2862 10.4249 27.2248 10.4224 27.1633C10.4199 27.1018 10.4052 27.0414 10.3793 26.9855L8.78174 23.5299C8.70817 23.3707 8.5906 23.2358 8.4429 23.1413C8.2952 23.0467 8.12353 22.9963 7.94815 22.9961H5.08759C4.48443 22.9954 3.9062 22.7554 3.4797 22.3289C3.0532 21.9025 2.81326 21.3242 2.8125 20.7211V14.1201C2.81264 13.827 2.90201 13.5409 3.06872 13.2998C3.23544 13.0587 3.4716 12.8741 3.7458 12.7704C4.02 12.6668 4.31925 12.6492 4.60374 12.7198C4.88824 12.7904 5.1445 12.9459 5.33844 13.1657L7.69867 15.8423C7.85898 16.024 8.05615 16.1696 8.27706 16.2693C8.49798 16.369 8.73759 16.4205 8.97995 16.4204H11.0028C11.2209 16.4206 11.43 16.5074 11.5842 16.6616C11.7384 16.8158 11.8252 17.0249 11.8254 17.243V17.823H7.01019L5.30502 15.6614C5.22805 15.5638 5.11546 15.5008 4.99201 15.4862C4.86856 15.4716 4.74437 15.5066 4.64676 15.5836C4.54915 15.6606 4.48611 15.7732 4.47152 15.8966C4.45692 16.0201 4.49197 16.1443 4.56894 16.2419L6.31394 18.4543V20.4492C6.3139 20.5107 6.326 20.5717 6.34954 20.6286C6.37309 20.6855 6.40762 20.7372 6.45115 20.7807C6.49468 20.8242 6.54637 20.8588 6.60326 20.8823C6.66015 20.9058 6.72112 20.9179 6.78269 20.9179H8.32443C8.67846 20.9177 9.02361 21.0287 9.31105 21.2354C9.59849 21.4421 9.81367 21.7339 9.92615 22.0696L11.6936 27.3316C11.7334 27.4492 11.8182 27.5461 11.9295 27.6013C12.0407 27.6564 12.1692 27.6651 12.2869 27.6256C12.4045 27.5861 12.5018 27.5016 12.5572 27.3905C12.6126 27.2794 12.6217 27.1509 12.5826 27.0332L10.8151 21.7712C10.6402 21.2492 10.3055 20.7955 9.85856 20.4741C9.4116 20.1528 8.87493 19.9801 8.32443 19.9804H7.25144V18.7605H22.7486V19.9804H21.6756C21.1251 19.9801 20.5884 20.1528 20.1414 20.4741C19.6945 20.7955 19.3598 21.2492 19.1849 21.7712L17.4175 27.0332C17.3783 27.151 17.3874 27.2795 17.4428 27.3905C17.4983 27.5016 17.5955 27.5861 17.7131 27.6256C17.8308 27.6651 17.9593 27.6564 18.0705 27.6013C18.1818 27.5462 18.2666 27.4492 18.3064 27.3316L20.0739 22.0696C20.1863 21.7339 20.4015 21.4421 20.689 21.2354C20.9764 21.0287 21.3215 20.9177 21.6756 20.9179H23.2173C23.2789 20.9179 23.3399 20.9058 23.3967 20.8823C23.4536 20.8588 23.5053 20.8242 23.5489 20.7807C23.5924 20.7372 23.6269 20.6855 23.6505 20.6286C23.674 20.5717 23.6861 20.5107 23.6861 20.4492V18.4543L25.4311 16.2418C25.508 16.1442 25.5431 16.02 25.5285 15.8966C25.5139 15.7732 25.4509 15.6606 25.3532 15.5836C25.2556 15.5066 25.1314 15.4716 25.008 15.4862C24.8846 15.5008 24.772 15.5638 24.695 15.6614L22.9898 17.823H18.1746V17.243C18.1748 17.0249 18.2616 16.8158 18.4158 16.6616C18.57 16.5073 18.7791 16.4206 18.9972 16.4204H21.02C21.2624 16.4205 21.502 16.3689 21.7229 16.2693C21.9439 16.1696 22.141 16.024 22.3013 15.8422L24.6616 13.1657C24.8555 12.9459 25.1118 12.7903 25.3963 12.7197C25.6808 12.6491 25.98 12.6668 26.2542 12.7704C26.5284 12.874 26.7646 13.0587 26.9313 13.2998C27.098 13.5409 27.1874 13.827 27.1875 14.1201V20.7211C27.1867 21.3242 26.9468 21.9025 26.5203 22.3289C26.0938 22.7554 25.5156 22.9954 24.9124 22.9961H22.0519C21.8767 22.9963 21.7051 23.0465 21.5575 23.1409C21.4099 23.2353 21.2924 23.37 21.2187 23.529L19.6207 26.9855C19.5948 27.0414 19.5802 27.1018 19.5776 27.1633C19.5751 27.2248 19.5847 27.2862 19.6059 27.3439C19.6271 27.4017 19.6595 27.4548 19.7013 27.5C19.743 27.5452 19.7932 27.5818 19.8491 27.6076C19.9106 27.6363 19.9776 27.6512 20.0455 27.6511C20.135 27.6512 20.2227 27.6256 20.2981 27.5774C20.3736 27.5293 20.4336 27.4605 20.4712 27.3792L22.0519 23.9337H24.9124C25.7642 23.9327 26.5808 23.594 27.183 22.9917C27.7853 22.3894 28.1241 21.5728 28.125 20.7211V14.1201C28.1242 13.489 27.8731 12.8839 27.4268 12.4376C26.9804 11.9914 26.3753 11.7404 25.7442 11.7397Z"/>
</mask>
<path d="M25.7442 11.7397C25.4064 11.7398 25.0725 11.8117 24.7646 11.9507C24.4567 12.0897 24.1819 12.2926 23.9584 12.5459L21.5982 15.2224C21.5258 15.3044 21.4369 15.37 21.3372 15.4149C21.2375 15.4598 21.1294 15.483 21.02 15.4829H18.9972C18.5306 15.4834 18.0832 15.6691 17.7532 15.999C17.4233 16.329 17.2376 16.7764 17.2371 17.243V17.823H12.7629V17.243C12.7617 16.7912 12.5867 16.3571 12.2741 16.0309C11.9614 15.7047 11.5352 15.5114 11.0838 15.4911V12.5724C11.0845 11.9109 11.3476 11.2767 11.8153 10.8089C12.283 10.3411 12.9172 10.0779 13.5787 10.0771H16.4214C17.0829 10.0779 17.717 10.3411 18.1848 10.8089C18.6525 11.2767 18.9155 11.9109 18.9162 12.5724V13.4907C18.9162 13.615 18.9656 13.7342 19.0535 13.8222C19.1414 13.9101 19.2606 13.9594 19.3849 13.9594C19.5093 13.9594 19.6285 13.9101 19.7164 13.8222C19.8043 13.7342 19.8537 13.615 19.8537 13.4907V12.5724C19.8527 11.6624 19.4908 10.7899 18.8473 10.1463C18.2039 9.5028 17.3314 9.14077 16.4214 9.13965H13.5786C12.6686 9.14077 11.7962 9.5028 11.1527 10.1463C10.5093 10.7899 10.1473 11.6624 10.1463 12.5724V15.4829H8.97995C8.87062 15.483 8.76251 15.4598 8.66282 15.4149C8.56314 15.37 8.47415 15.3044 8.4018 15.2224L6.04156 12.5459C5.72172 12.1832 5.29903 11.9265 4.82971 11.8099C4.3604 11.6934 3.86672 11.7225 3.41436 11.8934C2.962 12.0643 2.57241 12.3689 2.29743 12.7667C2.02244 13.1645 1.8751 13.6365 1.875 14.1201V20.7211C1.87592 21.5728 2.21469 22.3894 2.81696 22.9917C3.41924 23.594 4.23584 23.9327 5.08759 23.9336L7.93076 23.9227L9.52881 27.3792C9.56639 27.4605 9.62645 27.5293 9.70189 27.5774C9.77734 27.6256 9.86501 27.6512 9.95453 27.6511C10.0224 27.6512 10.0894 27.6363 10.1509 27.6076C10.2068 27.5818 10.257 27.5453 10.2988 27.5C10.3405 27.4548 10.3729 27.4017 10.3941 27.344C10.4153 27.2862 10.4249 27.2248 10.4224 27.1633C10.4199 27.1018 10.4052 27.0414 10.3793 26.9855L8.78174 23.5299C8.70817 23.3707 8.5906 23.2358 8.4429 23.1413C8.2952 23.0467 8.12353 22.9963 7.94815 22.9961H5.08759C4.48443 22.9954 3.9062 22.7554 3.4797 22.3289C3.0532 21.9025 2.81326 21.3242 2.8125 20.7211V14.1201C2.81264 13.827 2.90201 13.5409 3.06872 13.2998C3.23544 13.0587 3.4716 12.8741 3.7458 12.7704C4.02 12.6668 4.31925 12.6492 4.60374 12.7198C4.88824 12.7904 5.1445 12.9459 5.33844 13.1657L7.69867 15.8423C7.85898 16.024 8.05615 16.1696 8.27706 16.2693C8.49798 16.369 8.73759 16.4205 8.97995 16.4204H11.0028C11.2209 16.4206 11.43 16.5074 11.5842 16.6616C11.7384 16.8158 11.8252 17.0249 11.8254 17.243V17.823H7.01019L5.30502 15.6614C5.22805 15.5638 5.11546 15.5008 4.99201 15.4862C4.86856 15.4716 4.74437 15.5066 4.64676 15.5836C4.54915 15.6606 4.48611 15.7732 4.47152 15.8966C4.45692 16.0201 4.49197 16.1443 4.56894 16.2419L6.31394 18.4543V20.4492C6.3139 20.5107 6.326 20.5717 6.34954 20.6286C6.37309 20.6855 6.40762 20.7372 6.45115 20.7807C6.49468 20.8242 6.54637 20.8588 6.60326 20.8823C6.66015 20.9058 6.72112 20.9179 6.78269 20.9179H8.32443C8.67846 20.9177 9.02361 21.0287 9.31105 21.2354C9.59849 21.4421 9.81367 21.7339 9.92615 22.0696L11.6936 27.3316C11.7334 27.4492 11.8182 27.5461 11.9295 27.6013C12.0407 27.6564 12.1692 27.6651 12.2869 27.6256C12.4045 27.5861 12.5018 27.5016 12.5572 27.3905C12.6126 27.2794 12.6217 27.1509 12.5826 27.0332L10.8151 21.7712C10.6402 21.2492 10.3055 20.7955 9.85856 20.4741C9.4116 20.1528 8.87493 19.9801 8.32443 19.9804H7.25144V18.7605H22.7486V19.9804H21.6756C21.1251 19.9801 20.5884 20.1528 20.1414 20.4741C19.6945 20.7955 19.3598 21.2492 19.1849 21.7712L17.4175 27.0332C17.3783 27.151 17.3874 27.2795 17.4428 27.3905C17.4983 27.5016 17.5955 27.5861 17.7131 27.6256C17.8308 27.6651 17.9593 27.6564 18.0705 27.6013C18.1818 27.5462 18.2666 27.4492 18.3064 27.3316L20.0739 22.0696C20.1863 21.7339 20.4015 21.4421 20.689 21.2354C20.9764 21.0287 21.3215 20.9177 21.6756 20.9179H23.2173C23.2789 20.9179 23.3399 20.9058 23.3967 20.8823C23.4536 20.8588 23.5053 20.8242 23.5489 20.7807C23.5924 20.7372 23.6269 20.6855 23.6505 20.6286C23.674 20.5717 23.6861 20.5107 23.6861 20.4492V18.4543L25.4311 16.2418C25.508 16.1442 25.5431 16.02 25.5285 15.8966C25.5139 15.7732 25.4509 15.6606 25.3532 15.5836C25.2556 15.5066 25.1314 15.4716 25.008 15.4862C24.8846 15.5008 24.772 15.5638 24.695 15.6614L22.9898 17.823H18.1746V17.243C18.1748 17.0249 18.2616 16.8158 18.4158 16.6616C18.57 16.5073 18.7791 16.4206 18.9972 16.4204H21.02C21.2624 16.4205 21.502 16.3689 21.7229 16.2693C21.9439 16.1696 22.141 16.024 22.3013 15.8422L24.6616 13.1657C24.8555 12.9459 25.1118 12.7903 25.3963 12.7197C25.6808 12.6491 25.98 12.6668 26.2542 12.7704C26.5284 12.874 26.7646 13.0587 26.9313 13.2998C27.098 13.5409 27.1874 13.827 27.1875 14.1201V20.7211C27.1867 21.3242 26.9468 21.9025 26.5203 22.3289C26.0938 22.7554 25.5156 22.9954 24.9124 22.9961H22.0519C21.8767 22.9963 21.7051 23.0465 21.5575 23.1409C21.4099 23.2353 21.2924 23.37 21.2187 23.529L19.6207 26.9855C19.5948 27.0414 19.5802 27.1018 19.5776 27.1633C19.5751 27.2248 19.5847 27.2862 19.6059 27.3439C19.6271 27.4017 19.6595 27.4548 19.7013 27.5C19.743 27.5452 19.7932 27.5818 19.8491 27.6076C19.9106 27.6363 19.9776 27.6512 20.0455 27.6511C20.135 27.6512 20.2227 27.6256 20.2981 27.5774C20.3736 27.5293 20.4336 27.4605 20.4712 27.3792L22.0519 23.9337H24.9124C25.7642 23.9327 26.5808 23.594 27.183 22.9917C27.7853 22.3894 28.1241 21.5728 28.125 20.7211V14.1201C28.1242 13.489 27.8731 12.8839 27.4268 12.4376C26.9804 11.9914 26.3753 11.7404 25.7442 11.7397Z" fill="black" stroke="#363636" stroke-width="0.703125" mask="url(#path-3-inside-1_3111_12057)"/>
<path d="M15 19.7727C14.9384 19.7727 14.8775 19.7848 14.8206 19.8083C14.7637 19.8319 14.712 19.8664 14.6685 19.9099C14.6249 19.9535 14.5904 20.0051 14.5669 20.062C14.5433 20.1189 14.5312 20.1799 14.5313 20.2415V27.0525C14.5313 27.1768 14.5806 27.2961 14.6685 27.384C14.7565 27.4719 14.8757 27.5213 15 27.5213C15.1243 27.5213 15.2435 27.4719 15.3315 27.384C15.4194 27.2961 15.4688 27.1768 15.4688 27.0525V20.2415C15.4688 20.1799 15.4567 20.1189 15.4331 20.062C15.4096 20.0051 15.3751 19.9535 15.3315 19.9099C15.288 19.8664 15.2363 19.8319 15.1794 19.8083C15.1225 19.7848 15.0616 19.7727 15 19.7727Z" fill="black"/>
<path d="M12.2676 5.15085C12.2676 5.70503 12.4319 6.24676 12.7398 6.70754C13.0477 7.16832 13.4853 7.52746 13.9973 7.73953C14.5093 7.95161 15.0727 8.0071 15.6162 7.89898C16.1597 7.79087 16.659 7.52401 17.0508 7.13214C17.4427 6.74028 17.7096 6.24102 17.8177 5.69749C17.9258 5.15396 17.8703 4.59057 17.6582 4.07858C17.4462 3.56659 17.087 3.12898 16.6262 2.82109C16.1655 2.51321 15.6237 2.34888 15.0696 2.34888C14.3267 2.34974 13.6145 2.64522 13.0892 3.17051C12.5639 3.69579 12.2684 4.40798 12.2676 5.15085ZM16.934 5.15085C16.934 5.51961 16.8247 5.88008 16.6198 6.18669C16.4149 6.49331 16.1237 6.73228 15.7831 6.8734C15.4424 7.01451 15.0675 7.05144 14.7058 6.9795C14.3441 6.90756 14.0119 6.72998 13.7512 6.46923C13.4904 6.20848 13.3128 5.87626 13.2409 5.51459C13.169 5.15292 13.2059 4.77803 13.347 4.43735C13.4881 4.09666 13.7271 3.80547 14.0337 3.6006C14.3403 3.39573 14.7008 3.28638 15.0696 3.28638C15.5639 3.28691 16.0378 3.48352 16.3873 3.83306C16.7369 4.1826 16.9335 4.65653 16.934 5.15085Z" fill="black"/>
</svg>
