<svg width="16" height="16" viewBox="0 0 16 16" fill="none" xmlns="http://www.w3.org/2000/svg">
<path d="M5.33301 3.83325C5.05967 3.83325 4.83301 3.60659 4.83301 3.33325V1.33325C4.83301 1.05992 5.05967 0.833252 5.33301 0.833252C5.60634 0.833252 5.83301 1.05992 5.83301 1.33325V3.33325C5.83301 3.60659 5.60634 3.83325 5.33301 3.83325Z" fill="#363636"/>
<path d="M10.667 3.83325C10.3937 3.83325 10.167 3.60659 10.167 3.33325V1.33325C10.167 1.05992 10.3937 0.833252 10.667 0.833252C10.9403 0.833252 11.167 1.05992 11.167 1.33325V3.33325C11.167 3.60659 10.9403 3.83325 10.667 3.83325Z" fill="#363636"/>
<path d="M10.6667 15.1666H5.33333C2.9 15.1666 1.5 13.7666 1.5 11.3333V5.66659C1.5 3.23325 2.9 1.83325 5.33333 1.83325H10.6667C13.1 1.83325 14.5 3.23325 14.5 5.66659V11.3333C14.5 13.7666 13.1 15.1666 10.6667 15.1666ZM5.33333 2.83325C3.42667 2.83325 2.5 3.75992 2.5 5.66659V11.3333C2.5 13.2399 3.42667 14.1666 5.33333 14.1666H10.6667C12.5733 14.1666 13.5 13.2399 13.5 11.3333V5.66659C13.5 3.75992 12.5733 2.83325 10.6667 2.83325H5.33333Z" fill="#363636"/>
<path d="M10.6663 7.83325H5.33301C5.05967 7.83325 4.83301 7.60659 4.83301 7.33325C4.83301 7.05992 5.05967 6.83325 5.33301 6.83325H10.6663C10.9397 6.83325 11.1663 7.05992 11.1663 7.33325C11.1663 7.60659 10.9397 7.83325 10.6663 7.83325Z" fill="#363636"/>
<path d="M7.99967 11.1667H5.33301C5.05967 11.1667 4.83301 10.9401 4.83301 10.6667C4.83301 10.3934 5.05967 10.1667 5.33301 10.1667H7.99967C8.27301 10.1667 8.49967 10.3934 8.49967 10.6667C8.49967 10.9401 8.27301 11.1667 7.99967 11.1667Z" fill="#010211"/>
</svg>
